<svg width="14" height="14" viewBox="0 0 14 14" fill="none" xmlns="http://www.w3.org/2000/svg">
<path fill-rule="evenodd" clip-rule="evenodd" d="M7.03205 1.02026H7.03206C8.30996 1.02026 9.31369 1.02025 10.0974 1.12561C10.9004 1.23358 11.5375 1.45935 12.0382 1.95996C12.5388 2.46058 12.7646 3.09773 12.8725 3.90078C12.9779 4.68443 12.9779 5.68818 12.9779 6.96608V7.0328C12.9779 8.3107 12.9779 9.31443 12.8725 10.0981C12.7646 10.9011 12.5388 11.5383 12.0382 12.0389C11.5375 12.5395 10.9004 12.7653 10.0974 12.8733C9.31369 12.9786 8.30995 12.9786 7.03205 12.9786H6.96533C5.68743 12.9786 4.6837 12.9786 3.90005 12.8733C3.09699 12.7653 2.45985 12.5395 1.95923 12.0389C1.45862 11.5383 1.23285 10.9011 1.12488 10.0981C1.01952 9.31442 1.01952 8.3107 1.01953 7.03279V7.03278V6.96608V6.96607C1.01952 5.68816 1.01952 4.68444 1.12488 3.90078C1.23285 3.09773 1.45862 2.46058 1.95923 1.95996C2.45985 1.45935 3.097 1.23358 3.90005 1.12561C4.6837 1.02025 5.68743 1.02026 6.96534 1.02026H6.96535H7.03205ZM9.7262 4.81886C9.96369 5.03655 9.97973 5.40555 9.76204 5.64304L6.5537 9.14304C6.44619 9.26032 6.29544 9.3286 6.13637 9.33206C5.9773 9.33552 5.82372 9.27385 5.71122 9.16134L4.25289 7.70301C4.02508 7.4752 4.02508 7.10586 4.25289 6.87805C4.48069 6.65025 4.85004 6.65025 5.07784 6.87805L6.10537 7.90558L8.90203 4.85469C9.11972 4.61721 9.48872 4.60116 9.7262 4.81886Z" fill="#84CC16"/>
</svg>
