<svg width="60" height="60" viewBox="0 0 60 60" fill="none" xmlns="http://www.w3.org/2000/svg">
<rect width="60" height="60" fill="#ECECEC"/>
<g id="UI Design">
<path d="M-1527 -1120C-1527 -1121.1 -1526.1 -1122 -1525 -1122H7810C7811.1 -1122 7812 -1121.1 7812 -1120V5178C7812 5179.1 7811.1 5180 7810 5180H-1525C-1526.1 5180 -1527 5179.1 -1527 5178V-1120Z" fill="#F5F5F5"/>
<path d="M-1525 -1121H7810V-1123H-1525V-1121ZM7811 -1120V5178H7813V-1120H7811ZM7810 5179H-1525V5181H7810V5179ZM-1526 5178V-1120H-1528V5178H-1526ZM-1525 5179C-1525.55 5179 -1526 5178.55 -1526 5178H-1528C-1528 5179.66 -1526.66 5181 -1525 5181V5179ZM7811 5178C7811 5178.55 7810.55 5179 7810 5179V5181C7811.66 5181 7813 5179.66 7813 5178H7811ZM7810 -1121C7810.55 -1121 7811 -1120.55 7811 -1120H7813C7813 -1121.66 7811.66 -1123 7810 -1123V-1121ZM-1525 -1123C-1526.66 -1123 -1528 -1121.66 -1528 -1120H-1526C-1526 -1120.55 -1525.55 -1121 -1525 -1121V-1123Z" fill="black" fill-opacity="0.1"/>
<g id="Home Desktop" clip-path="url(#clip0_305_34)">
<rect width="1920" height="4592" transform="translate(-1188 -838)" fill="white"/>
<g id="Frame 2085664391">
<g id="Hero">
<g id="Frame 2085664387">
<g id="Visual Studio CodeLogomark">
<rect x="-30" y="-30" width="120" height="120" rx="24" fill="white"/>
<rect x="-30" y="-30" width="120" height="120" rx="24" stroke="#EBEFF6" stroke-width="1.5"/>
<g id="Figma Logomark">
<g id="Figma Logomark_2">
<path id="Element" d="M29.7798 29.9998C29.7798 25.0907 33.7594 21.111 38.6686 21.111C43.5776 21.111 47.5573 25.0907 47.5573 29.9998C47.5573 34.9091 43.5776 38.8887 38.6686 38.8887C33.7594 38.8887 29.7798 34.9091 29.7798 29.9998Z" fill="#1ABCFE"/>
<path id="Element_2" d="M12 47.7778C12 42.8687 15.9796 38.8889 20.8888 38.8889H29.7776V47.7778C29.7776 52.687 25.798 56.6667 20.8888 56.6667C15.9796 56.6667 12 52.687 12 47.7778Z" fill="#0ACF83"/>
<path id="Element_3" d="M29.7798 3.33334V21.111H38.6686C43.5777 21.111 47.5573 17.1314 47.5573 12.2222C47.5573 7.31303 43.5777 3.33334 38.6686 3.33334H29.7798Z" fill="#FF7262"/>
<path id="Element_4" d="M12 12.2222C12 17.1314 15.9796 21.111 20.8888 21.111H29.7776V3.33334H20.8888C15.9796 3.33334 12 7.31302 12 12.2222Z" fill="#F24E1E"/>
<path id="Element_5" d="M12 29.9998C12 34.9091 15.9796 38.8887 20.8888 38.8887H29.7776V21.111H20.8888C15.9796 21.111 12 25.0907 12 29.9998Z" fill="#A259FF"/>
</g>
</g>
</g>
</g>
</g>
</g>
</g>
</g>
<defs>
<clipPath id="clip0_305_34">
<rect width="1920" height="4592" fill="white" transform="translate(-1188 -838)"/>
</clipPath>
</defs>
</svg>
