<svg width="60" height="60" viewBox="0 0 60 60" fill="none" xmlns="http://www.w3.org/2000/svg">
<rect width="60" height="60" fill="#ECECEC"/>
<g id="UI Design">
<path d="M-605 -862C-605 -863.105 -604.105 -864 -603 -864H8732C8733.1 -864 8734 -863.105 8734 -862V5436C8734 5437.1 8733.1 5438 8732 5438H-603C-604.105 5438 -605 5437.1 -605 5436V-862Z" fill="#F5F5F5"/>
<path d="M-603 -863H8732V-865H-603V-863ZM8733 -862V5436H8735V-862H8733ZM8732 5437H-603V5439H8732V5437ZM-604 5436V-862H-606V5436H-604ZM-603 5437C-603.552 5437 -604 5436.55 -604 5436H-606C-606 5437.66 -604.657 5439 -603 5439V5437ZM8733 5436C8733 5436.55 8732.55 5437 8732 5437V5439C8733.66 5439 8735 5437.66 8735 5436H8733ZM8732 -863C8732.55 -863 8733 -862.552 8733 -862H8735C8735 -863.657 8733.66 -865 8732 -865V-863ZM-603 -865C-604.657 -865 -606 -863.657 -606 -862H-604C-604 -862.552 -603.552 -863 -603 -863V-865Z" fill="black" fill-opacity="0.1"/>
<g id="Home Desktop" clip-path="url(#clip0_305_34)">
<rect width="1920" height="4592" transform="translate(-266 -580)" fill="white"/>
<g id="Frame 2085664391">
<g id="Hero">
<g id="Visual Studio CodeLogomark">
<rect x="-30" y="-30" width="120" height="120" rx="24" fill="white"/>
<rect x="-30" y="-30" width="120" height="120" rx="24" stroke="#EBEFF6" stroke-width="1.5"/>
<g id="Notion Logomark">
<g id="Notion">
<path id="Element" d="M7.88276 5.63305L37.4594 3.45494C41.0913 3.14342 42.0259 3.35209 44.3086 5.01044L53.7499 11.6464C55.3077 12.7875 55.8269 13.0982 55.8269 14.3421V50.7379C55.8269 53.0188 54.996 54.3678 52.0909 54.5742L17.7439 56.6483C15.5632 56.7524 14.5253 56.4415 13.3833 54.989L6.43064 45.968C5.18482 44.3076 4.66675 43.0652 4.66675 41.6118V9.26085C4.66675 7.39553 5.49786 5.83961 7.88276 5.63305Z" fill="white"/>
<path id="Element_2" fill-rule="evenodd" clip-rule="evenodd" d="M37.4594 3.45494L7.88276 5.63305C5.49786 5.83961 4.66675 7.39553 4.66675 9.26085V41.6118C4.66675 43.0652 5.18482 44.3076 6.43064 45.968L13.3833 54.989C14.5253 56.4415 15.5632 56.7524 17.7439 56.6483L52.0909 54.5742C54.996 54.3678 55.8269 53.0188 55.8269 50.7379V14.3421C55.8269 13.163 55.3603 12.8224 53.9852 11.8184C53.9094 11.7631 53.8311 11.7059 53.7499 11.6464L44.3086 5.01044C42.0259 3.35209 41.0913 3.14342 37.4594 3.45494ZM18.5227 13.7451C15.7184 13.9345 15.0812 13.9775 13.4888 12.6838L9.4391 9.4695C9.02606 9.05385 9.23322 8.53536 10.2702 8.43253L38.7047 6.35853C41.0909 6.1507 42.336 6.98158 43.2704 7.70705L48.1473 11.2328C48.3549 11.3361 48.8729 11.9575 48.2501 11.9575L18.8846 13.7208C18.7611 13.7291 18.6413 13.7371 18.5252 13.745L18.5231 13.7451L18.5227 13.7451ZM15.2518 50.4262V19.5276C15.2518 18.1799 15.667 17.5573 16.9115 17.4527L50.6368 15.4832C51.7806 15.3796 52.2985 16.1059 52.2985 17.4527V48.1439C52.2985 49.4929 52.0905 50.6352 50.2219 50.7379L17.9494 52.6052C16.0816 52.7079 15.2518 52.0868 15.2518 50.4262ZM47.1112 21.185C47.3182 22.1192 47.1112 23.0525 46.1755 23.1575L44.6205 23.4673V46.2786C43.2704 47.0043 42.0255 47.4191 40.988 47.4191C39.3271 47.4191 38.911 46.9003 37.6669 45.3457L27.4958 29.3777V44.8273L30.7143 45.5536C30.7143 45.5536 30.7143 47.4191 28.1176 47.4191L20.9591 47.8345C20.751 47.4191 20.9591 46.3831 21.6852 46.1754L23.5533 45.6577V25.2307L20.9595 25.0228C20.7515 24.0886 21.2696 22.7418 22.7234 22.6372L30.4029 22.1196L40.988 38.2955V23.9857L38.2892 23.676C38.082 22.5341 38.911 21.7048 39.9489 21.602L47.1112 21.185Z" fill="#000008"/>
</g>
</g>
</g>
<g id="Frame 2085664365">
<g id="Header">
</g>
</g>
</g>
</g>
</g>
</g>
<defs>
<clipPath id="clip0_305_34">
<rect width="1920" height="4592" fill="white" transform="translate(-266 -580)"/>
</clipPath>
</defs>
</svg>
