<svg width="60" height="60" viewBox="0 0 60 60" fill="none" xmlns="http://www.w3.org/2000/svg">
<rect width="60" height="60" fill="#ECECEC"/>
<g id="UI Design">
<path d="M-801 -1018C-801 -1019.1 -800.105 -1020 -799 -1020H8536C8537.1 -1020 8538 -1019.1 8538 -1018V5280C8538 5281.1 8537.1 5282 8536 5282H-799C-800.105 5282 -801 5281.1 -801 5280V-1018Z" fill="#F5F5F5"/>
<path d="M-799 -1019H8536V-1021H-799V-1019ZM8537 -1018V5280H8539V-1018H8537ZM8536 5281H-799V5283H8536V5281ZM-800 5280V-1018H-802V5280H-800ZM-799 5281C-799.552 5281 -800 5280.55 -800 5280H-802C-802 5281.66 -800.657 5283 -799 5283V5281ZM8537 5280C8537 5280.55 8536.55 5281 8536 5281V5283C8537.66 5283 8539 5281.66 8539 5280H8537ZM8536 -1019C8536.55 -1019 8537 -1018.55 8537 -1018H8539C8539 -1019.66 8537.66 -1021 8536 -1021V-1019ZM-799 -1021C-800.657 -1021 -802 -1019.66 -802 -1018H-800C-800 -1018.55 -799.552 -1019 -799 -1019V-1021Z" fill="black" fill-opacity="0.1"/>
<g id="Home Desktop" clip-path="url(#clip0_305_34)">
<rect width="1920" height="4592" transform="translate(-462 -736)" fill="white"/>
<g id="Frame 2085664391">
<g id="Hero">
<g id="Frame 2085664388">
<g id="Visual Studio CodeLogomark">
<rect x="-30" y="-30" width="120" height="120" rx="24" fill="white"/>
<rect x="-30" y="-30" width="120" height="120" rx="24" stroke="#EBEFF6" stroke-width="1.5"/>
<g id="Shopify Logomark">
<g id="Shopify">
<path d="M47.7483 13.5716C47.7055 13.3146 47.4913 13.1432 47.2771 13.1432C47.0629 13.1432 43.2931 13.0576 43.2931 13.0576C43.2931 13.0576 40.1231 9.97322 39.8233 9.67336C39.5234 9.37349 38.8808 9.45917 38.6666 9.54484C38.6666 9.54484 38.0669 9.7162 37.0816 10.0161C36.9103 9.45917 36.6532 8.8166 36.3105 8.13119C35.1968 5.98929 33.5261 4.83266 31.5555 4.83266C31.427 4.83266 31.2985 4.83266 31.1271 4.8755C31.0843 4.78982 30.9986 4.74699 30.9558 4.66131C30.099 3.71887 28.9852 3.29049 27.6573 3.33333C25.087 3.41901 22.5167 5.26104 20.4605 8.55957C19.004 10.8728 17.8902 13.7858 17.5475 16.0562C14.5917 16.9558 12.5354 17.5984 12.4926 17.6412C10.9933 18.1124 10.9504 18.1553 10.7791 19.5689C10.6506 20.6399 6.70947 50.8407 6.70947 50.8407L39.4377 56.4953L53.6171 52.9826C53.5743 52.9398 47.7911 13.8286 47.7483 13.5716ZM35.4538 10.5301C34.6827 10.7443 33.8259 11.0442 32.9263 11.3012C32.9263 10.0161 32.755 8.17403 32.1553 6.63186C34.083 7.0174 35.0254 9.20214 35.4538 10.5301ZM31.17 11.8581C29.4565 12.3722 27.5716 12.9719 25.6867 13.5288C26.2008 11.5154 27.2289 9.50201 28.4283 8.17403C28.8996 7.70281 29.5421 7.14591 30.2704 6.80321C31.0415 8.30254 31.2128 10.4016 31.17 11.8581ZM27.7001 5.04685C28.2998 5.04685 28.8139 5.17537 29.2423 5.43239C28.5569 5.81794 27.8715 6.33199 27.2289 7.0174C25.601 8.77376 24.3587 11.5154 23.8447 14.1285C22.3025 14.5997 20.7603 15.0709 19.3467 15.4993C20.2463 11.3869 23.7162 5.17537 27.7001 5.04685Z" fill="#95BF47"/>
<path d="M47.2771 13.1432C47.0629 13.1432 43.2931 13.0576 43.2931 13.0576C43.2931 13.0576 40.1231 9.97322 39.8233 9.67336C39.6947 9.54484 39.5666 9.50202 39.3952 9.45919V56.4525L53.5746 52.9398C53.5746 52.9398 47.7915 13.8287 47.7486 13.5288C47.7058 13.3146 47.4913 13.1432 47.2771 13.1432Z" fill="#5E8E3E"/>
<path d="M31.513 20.4257L29.8852 26.5944C29.8852 26.5944 28.0431 25.7376 25.8584 25.909C22.6455 26.1232 22.6455 28.1366 22.6455 28.6506C22.8169 31.3923 30.0565 31.992 30.4849 38.4605C30.7848 43.5583 27.7861 47.0281 23.4595 47.2852C18.2332 47.6279 15.3631 44.5435 15.3631 44.5435L16.4769 39.8313C16.4769 39.8313 19.347 42.0161 21.6603 41.8447C23.1596 41.7591 23.7165 40.5168 23.6737 39.66C23.4595 36.0616 17.5478 36.2758 17.1623 30.3641C16.8624 25.3949 20.1181 20.34 27.3149 19.9117C30.0994 19.6975 31.513 20.4257 31.513 20.4257Z" fill="white"/>
</g>
</g>
</g>
</g>
</g>
</g>
</g>
</g>
<defs>
<clipPath id="clip0_305_34">
<rect width="1920" height="4592" fill="white" transform="translate(-462 -736)"/>
</clipPath>
</defs>
</svg>
