<svg width="60" height="60" viewBox="0 0 60 60" fill="none" xmlns="http://www.w3.org/2000/svg">
<rect width="60" height="60" fill="#ECECEC"/>
<g id="UI Design">
<path d="M-1933 -862C-1933 -863.105 -1932.1 -864 -1931 -864H7404C7405.1 -864 7406 -863.105 7406 -862V5436C7406 5437.1 7405.1 5438 7404 5438H-1931C-1932.1 5438 -1933 5437.1 -1933 5436V-862Z" fill="#F5F5F5"/>
<path d="M-1931 -863H7404V-865H-1931V-863ZM7405 -862V5436H7407V-862H7405ZM7404 5437H-1931V5439H7404V5437ZM-1932 5436V-862H-1934V5436H-1932ZM-1931 5437C-1931.55 5437 -1932 5436.55 -1932 5436H-1934C-1934 5437.66 -1932.66 5439 -1931 5439V5437ZM7405 5436C7405 5436.55 7404.55 5437 7404 5437V5439C7405.66 5439 7407 5437.66 7407 5436H7405ZM7404 -863C7404.55 -863 7405 -862.552 7405 -862H7407C7407 -863.657 7405.66 -865 7404 -865V-863ZM-1931 -865C-1932.66 -865 -1934 -863.657 -1934 -862H-1932C-1932 -862.552 -1931.55 -863 -1931 -863V-865Z" fill="black" fill-opacity="0.1"/>
<g id="Home Desktop" clip-path="url(#clip0_305_34)">
<rect width="1920" height="4592" transform="translate(-1594 -580)" fill="white"/>
<g id="Frame 2085664391">
<g id="Hero">
<g id="Visual Studio CodeLogomark">
<rect x="-30" y="-30" width="120" height="120" rx="24" fill="white"/>
<rect x="-30" y="-30" width="120" height="120" rx="24" stroke="#EBEFF6" stroke-width="1.5"/>
<g id="Webflow Logomark">
<g id="Webflow Logomark_2">
<path id="Element" d="M48.6668 3.33331C53.0851 3.33331 56.6668 6.91504 56.6668 11.3333V48.6667C56.6668 53.0849 53.0851 56.6666 48.6668 56.6666H11.3335C6.91521 56.6666 3.3335 53.0849 3.3335 48.6666V11.3333C3.3335 6.91503 6.91522 3.33331 11.3335 3.33331H48.6668Z" fill="#4353FF"/>
<path id="Element_2" d="M39.4537 25.6803C39.4537 25.6803 36.7471 34.1603 36.5471 34.8803C36.4671 34.1736 34.4937 18.9336 34.4937 18.9336C29.8804 18.9336 27.4271 22.2136 26.1204 25.6803C26.1204 25.6803 22.8271 34.1869 22.5604 34.8936C22.5471 34.2269 22.0537 25.7603 22.0537 25.7603C21.7737 21.5069 17.8937 18.9336 14.7471 18.9336L18.5337 42.0136C23.3604 42.0003 25.9604 38.7336 27.3204 35.2536C27.3204 35.2536 30.2137 27.7469 30.3337 27.4136C30.3604 27.7336 32.4137 42.0136 32.4137 42.0136C37.2537 42.0136 39.8671 38.9603 41.2671 35.6136L48.0537 18.9336C43.2671 18.9336 40.7471 22.2003 39.4537 25.6803Z" fill="white"/>
</g>
</g>
</g>
<g id="Frame 2085664365">
<g id="Header">
</g>
</g>
</g>
</g>
</g>
</g>
<defs>
<clipPath id="clip0_305_34">
<rect width="1920" height="4592" fill="white" transform="translate(-1594 -580)"/>
</clipPath>
</defs>
</svg>
