<svg width="60" height="60" viewBox="0 0 60 60" fill="none" xmlns="http://www.w3.org/2000/svg">
<rect width="60" height="60" fill="#ECECEC"/>
<g id="UI Design">
<path d="M-1737 -1018C-1737 -1019.1 -1736.1 -1020 -1735 -1020H7600C7601.1 -1020 7602 -1019.1 7602 -1018V5280C7602 5281.1 7601.1 5282 7600 5282H-1735C-1736.1 5282 -1737 5281.1 -1737 5280V-1018Z" fill="#F5F5F5"/>
<path d="M-1735 -1019H7600V-1021H-1735V-1019ZM7601 -1018V5280H7603V-1018H7601ZM7600 5281H-1735V5283H7600V5281ZM-1736 5280V-1018H-1738V5280H-1736ZM-1735 5281C-1735.55 5281 -1736 5280.55 -1736 5280H-1738C-1738 5281.66 -1736.66 5283 -1735 5283V5281ZM7601 5280C7601 5280.55 7600.55 5281 7600 5281V5283C7601.66 5283 7603 5281.66 7603 5280H7601ZM7600 -1019C7600.55 -1019 7601 -1018.55 7601 -1018H7603C7603 -1019.66 7601.66 -1021 7600 -1021V-1019ZM-1735 -1021C-1736.66 -1021 -1738 -1019.66 -1738 -1018H-1736C-1736 -1018.55 -1735.55 -1019 -1735 -1019V-1021Z" fill="black" fill-opacity="0.1"/>
<g id="Home Desktop" clip-path="url(#clip0_305_34)">
<rect width="1920" height="4592" transform="translate(-1398 -736)" fill="white"/>
<g id="Frame 2085664391">
<g id="Hero">
<g id="Frame 2085664388">
<g id="Visual Studio CodeLogomark">
<rect x="-30" y="-30" width="120" height="120" rx="24" fill="white"/>
<rect x="-30" y="-30" width="120" height="120" rx="24" stroke="#EBEFF6" stroke-width="1.5"/>
<g id="Wordpress Logomark">
<g id="Wordpress Logomark_2">
<path d="M29.9853 3.33334C15.2651 3.33334 3.33203 15.2664 3.33203 29.9867C3.33203 44.7069 15.2651 56.64 29.9853 56.64C44.7056 56.64 56.6387 44.7069 56.6387 29.9867C56.6387 15.2664 44.7056 3.33334 29.9853 3.33334ZM29.9853 4.93254C33.3684 4.93254 36.6493 5.59477 39.737 6.90076C41.2212 7.52852 42.6529 8.30566 43.9923 9.2104C45.3193 10.1069 46.5671 11.1366 47.7013 12.2707C48.8354 13.4049 49.8651 14.6528 50.7616 15.9797C51.6664 17.3191 52.4435 18.7508 53.0712 20.235C54.3773 23.3227 55.0395 26.6037 55.0395 29.9867C55.0395 33.3697 54.3773 36.6506 53.0712 39.7383C52.4435 41.2226 51.6664 42.6542 50.7616 43.9936C49.8651 45.3206 48.8354 46.5684 47.7013 47.7026C46.5671 48.8368 45.3193 49.8664 43.9923 50.7629C42.6529 51.6677 41.2212 52.4448 39.737 53.0726C36.6493 54.3786 33.3684 55.0409 29.9853 55.0409C26.6024 55.0409 23.3214 54.3786 20.2337 53.0726C18.7494 52.4448 17.3178 51.6677 15.9784 50.7629C14.6515 49.8664 13.4036 48.8368 12.2694 47.7026C11.1353 46.5684 10.1056 45.3206 9.20909 43.9936C8.30435 42.6542 7.52722 41.2226 6.89945 39.7383C5.59346 36.6506 4.93123 33.3697 4.93123 29.9867C4.93123 26.6037 5.59346 23.3227 6.89945 20.235C7.52722 18.7508 8.30435 17.3191 9.20909 15.9797C10.1056 14.6528 11.1353 13.4049 12.2694 12.2707C13.4036 11.1366 14.6515 10.1069 15.9784 9.2104C17.3178 8.30566 18.7494 7.52852 20.2337 6.90076C23.3214 5.59477 26.6024 4.93254 29.9853 4.93254Z" fill="#32373C"/>
<path d="M49.4752 19.3307C49.5706 20.038 49.6245 20.7969 49.6245 21.6145C49.6245 23.8675 49.2024 26.4012 47.935 29.5697L41.1513 49.1836C47.7546 45.3339 52.1953 38.1799 52.1953 29.9859C52.1953 26.1244 51.2085 22.494 49.4752 19.3307ZM30.3744 31.9287L23.7093 51.2929C25.6998 51.8785 27.8042 52.1979 29.9842 52.1979C32.5707 52.1979 35.052 51.7515 37.3604 50.9386C37.301 50.8436 37.2463 50.7427 37.2011 50.6325L30.3744 31.9287ZM44.9785 28.8658C44.9785 26.12 43.9922 24.2195 43.1475 22.7404C42.0215 20.91 40.9657 19.3614 40.9657 17.5311C40.9657 15.4897 42.5138 13.5892 44.6956 13.5892C44.7942 13.5892 44.8875 13.601 44.9832 13.6071C41.0315 9.98635 35.7666 7.77569 29.9842 7.77569C22.2242 7.77569 15.3978 11.7573 11.4262 17.7864C11.9477 17.803 12.4391 17.8134 12.8557 17.8134C15.1783 17.8134 18.7755 17.5311 18.7755 17.5311C19.9722 17.4609 20.1136 19.22 18.9175 19.3614C18.9175 19.3614 17.7139 19.5024 16.3757 19.5724L24.4636 43.6311L29.3249 29.0536L25.8647 19.5724C24.668 19.5024 23.5351 19.3614 23.5351 19.3614C22.3378 19.2907 22.478 17.4609 23.676 17.5311C23.676 17.5311 27.3432 17.8134 29.5256 17.8134C31.8482 17.8134 35.446 17.5311 35.446 17.5311C36.6433 17.4609 36.7842 19.22 35.5875 19.3614C35.5875 19.3614 34.3826 19.5024 33.0456 19.5724L41.0724 43.4479L43.3638 36.1874C44.3817 33.0144 44.9785 30.7663 44.9785 28.8658ZM7.77308 29.9859C7.77308 38.7772 12.8817 46.3752 20.2916 49.9751L9.69635 20.9469C8.46393 23.7089 7.77308 26.7658 7.77308 29.9859Z" fill="#32373C"/>
</g>
</g>
</g>
</g>
</g>
</g>
</g>
</g>
<defs>
<clipPath id="clip0_305_34">
<rect width="1920" height="4592" fill="white" transform="translate(-1398 -736)"/>
</clipPath>
</defs>
</svg>
