<svg width="60" height="60" viewBox="0 0 60 60" fill="none" xmlns="http://www.w3.org/2000/svg">
<mask id="mask0_652_6179" style="mask-type:alpha" maskUnits="userSpaceOnUse" x="0" y="0" width="60" height="60">
<path fill-rule="evenodd" clip-rule="evenodd" d="M42.5471 59.5902C43.4921 59.9584 44.5697 59.9348 45.5235 59.4758L57.8765 53.5318C59.1745 52.9072 60 51.5935 60 50.1523V9.84792C60 8.40672 59.1746 7.09302 57.8765 6.46842L45.5235 0.524192C44.2717 -0.0781389 42.8068 0.0693946 41.7081 0.868109C41.5512 0.982205 41.4017 1.1096 41.2614 1.24998L17.6131 22.8248L7.31232 15.0057C6.3534 14.2778 5.01218 14.3375 4.1216 15.1476L0.817818 18.1529C-0.271531 19.1438 -0.27278 20.8576 0.815118 21.8501L9.74826 30L0.815118 38.1499C-0.27278 39.1424 -0.271531 40.8562 0.817818 41.8471L4.1216 44.8524C5.01218 45.6625 6.3534 45.7222 7.31232 44.9942L17.6131 37.1752L41.2614 58.75C41.6355 59.1243 42.0748 59.4062 42.5471 59.5902ZM45.0091 16.3793L27.0655 30L45.0091 43.6207V16.3793Z" fill="white"/>
</mask>
<g mask="url(#mask0_652_6179)">
<path d="M57.8767 6.47738L45.514 0.524983C44.083 -0.164005 42.3729 0.126625 41.2499 1.24966L0.778996 38.1496C-0.309568 39.142 -0.308317 40.8559 0.781696 41.8468L4.08748 44.8521C4.97861 45.6622 6.32067 45.7218 7.28013 44.994L56.0164 8.0216C57.6515 6.78122 59.9999 7.94738 59.9999 9.99968V9.85616C59.9999 8.41556 59.1746 7.10234 57.8767 6.47738Z" fill="#0065A9"/>
<g filter="url(#filter0_d_652_6179)">
<path d="M57.8777 53.5211L45.515 59.4735C44.084 60.1626 42.3738 59.8718 41.2508 58.7488L0.779972 21.8489C-0.308592 20.8564 -0.30734 19.1426 0.782672 18.1517L4.08846 15.1464C4.97958 14.3363 6.32164 14.2766 7.2811 15.0045L56.0174 51.9768C57.6524 53.2172 60.0008 52.0511 60.0008 49.9988V50.1423C60.0008 51.5829 59.1756 52.8961 57.8777 53.5211Z" fill="#007ACC"/>
</g>
<g filter="url(#filter1_d_652_6179)">
<path d="M45.5152 59.4751C44.0838 60.1637 42.3736 59.8724 41.2505 58.7492C42.6343 60.1331 45.0005 59.153 45.0005 57.196V2.80256C45.0005 0.845514 42.6343 -0.134584 41.2505 1.24925C42.3736 0.126121 44.0838 -0.16492 45.5152 0.52346L57.8757 6.4677C59.1745 7.0923 60.0005 8.406 60.0005 9.8472V50.1515C60.0005 51.5927 59.1745 52.9064 57.8757 53.531L45.5152 59.4751Z" fill="#1F9CF0"/>
</g>
<g style="mix-blend-mode:overlay" opacity="0.25">
<path fill-rule="evenodd" clip-rule="evenodd" d="M42.511 59.5897C43.456 59.9579 44.5336 59.9343 45.4874 59.4753L57.8403 53.5313C59.1384 52.9067 59.9639 51.593 59.9639 50.1517V9.84747C59.9639 8.40621 59.1384 7.09251 57.8404 6.46791L45.4874 0.523704C44.2356 -0.0786268 42.7706 0.0689067 41.672 0.867615C41.5151 0.981717 41.3655 1.10911 41.2253 1.2495L17.5769 22.8243L7.27618 15.0052C6.31732 14.2773 4.97605 14.337 4.08547 15.1471L0.781686 18.1524C-0.307664 19.1433 -0.308913 20.8571 0.778986 21.8496L9.71212 29.9995L0.778986 38.1494C-0.308913 39.1419 -0.307664 40.8557 0.781686 41.8466L4.08547 44.8519C4.97605 45.662 6.31732 45.7216 7.27618 44.9938L17.5769 37.1746L41.2253 58.7495C41.5994 59.1238 42.0386 59.4057 42.511 59.5897ZM44.973 16.3788L27.0293 29.9995L44.973 43.6202V16.3788Z" fill="url(#paint0_linear_652_6179)"/>
</g>
</g>
<defs>
<filter id="filter0_d_652_6179" x="-6.70232" y="7.82954" width="73.3697" height="58.6808" filterUnits="userSpaceOnUse" color-interpolation-filters="sRGB">
<feFlood flood-opacity="0" result="BackgroundImageFix"/>
<feColorMatrix in="SourceAlpha" type="matrix" values="0 0 0 0 0 0 0 0 0 0 0 0 0 0 0 0 0 0 127 0" result="hardAlpha"/>
<feOffset/>
<feGaussianBlur stdDeviation="3.33334"/>
<feColorMatrix type="matrix" values="0 0 0 0 0 0 0 0 0 0 0 0 0 0 0 0 0 0 0.25 0"/>
<feBlend mode="overlay" in2="BackgroundImageFix" result="effect1_dropShadow_652_6179"/>
<feBlend mode="normal" in="SourceGraphic" in2="effect1_dropShadow_652_6179" result="shape"/>
</filter>
<filter id="filter1_d_652_6179" x="34.5838" y="-6.51274" width="32.0833" height="73.0241" filterUnits="userSpaceOnUse" color-interpolation-filters="sRGB">
<feFlood flood-opacity="0" result="BackgroundImageFix"/>
<feColorMatrix in="SourceAlpha" type="matrix" values="0 0 0 0 0 0 0 0 0 0 0 0 0 0 0 0 0 0 127 0" result="hardAlpha"/>
<feOffset/>
<feGaussianBlur stdDeviation="3.33334"/>
<feColorMatrix type="matrix" values="0 0 0 0 0 0 0 0 0 0 0 0 0 0 0 0 0 0 0.25 0"/>
<feBlend mode="overlay" in2="BackgroundImageFix" result="effect1_dropShadow_652_6179"/>
<feBlend mode="normal" in="SourceGraphic" in2="effect1_dropShadow_652_6179" result="shape"/>
</filter>
<linearGradient id="paint0_linear_652_6179" x1="29.9639" y1="0.154174" x2="29.9639" y2="59.8449" gradientUnits="userSpaceOnUse">
<stop stop-color="white"/>
<stop offset="1" stop-color="white" stop-opacity="0"/>
</linearGradient>
</defs>
</svg>
